<?xml version="1.0" encoding="UTF-8" standalone="no"?>
<svg
   version="1.2"
   viewBox="0 0 115.19473 53.702003"
   width="115.19473"
   height="53.702003"
   id="svg1"
   xmlns="http://www.w3.org/2000/svg"
   xmlns:svg="http://www.w3.org/2000/svg">
  <defs
     id="defs1" />
  <style
     id="style1">
		.s0 { fill: #3a3b46 } 
	</style>
  <path
     style="font-size:22.6771px;line-height:45.65px;font-family:Evermore;-inkscape-font-specification:'Evermore, Normal';letter-spacing:2px;fill:#333333;stroke:#000000;stroke-width:0"
     d="M 5.6719466,21.249761 V 32.582966 H -5.3887694e-7 V 21.249761 q 0,-2.257787 0.86408522887694,-4.338493 Q 1.7281709,14.830562 3.3234057,13.23683 4.9186415,11.643098 7.0013101,10.779827 9.0839786,9.9165551 11.343895,9.9165551 q 2.259917,0 4.342585,0.8632719 2.082669,0.863271 3.677904,2.457003 0.243717,0.243487 0.487433,0.509109 0.243716,-0.265622 0.487433,-0.509109 1.595235,-1.593732 3.677903,-2.457003 2.082669,-0.8632719 4.342586,-0.8632719 2.259916,0 4.342585,0.8632719 2.082668,0.863271 3.677904,2.457003 1.595235,1.593732 2.459321,3.674438 0.864085,2.080706 0.864085,4.338493 V 32.582966 H 34.031687 V 21.249761 q 0,-2.346329 -1.661704,-4.006466 -1.661703,-1.660137 -4.010244,-1.660137 -2.348541,0 -4.010245,1.660137 -1.661703,1.660137 -1.661703,4.006466 V 32.582966 H 17.015843 V 21.249761 q 0,-2.346329 -1.661703,-4.006466 -1.661704,-1.660137 -4.010245,-1.660137 -2.3485412,0 -4.0102443,1.660137 -1.6617041,1.660137 -1.6617041,4.006466 z M 58.941983,17.17689 q -1.57308,-1.593732 -3.722216,-1.593732 -2.348541,0 -4.010244,1.660137 -1.661704,1.660137 -1.661704,4.006466 0,2.346328 1.661704,4.006465 1.661703,1.660137 4.010244,1.660137 2.34854,0 4.010244,-1.660137 0.50959,-0.509109 0.864086,-1.084624 l 4.852174,2.899708 q -0.708993,1.195298 -1.706016,2.191381 -1.595234,1.593732 -3.677903,2.457004 -2.082668,0.863271 -4.342585,0.863271 -2.259917,0 -4.342585,-0.863271 -2.082669,-0.863272 -3.677904,-2.457004 -1.595235,-1.593732 -2.459321,-3.674438 -0.864086,-2.080705 -0.864086,-4.338492 0,-2.257787 0.864086,-4.338493 0.864086,-2.080706 2.459321,-3.674438 1.595235,-1.593732 3.677904,-2.457003 2.082668,-0.8632719 4.342585,-0.8632719 2.259917,0 4.342585,0.8632719 2.082669,0.863271 3.677903,2.457003 1.595236,1.593732 2.459321,3.674438 0.775463,1.881489 0.864087,3.895789 l -12.717571,3.873654 -1.506611,-5.467386 z m 17.488019,4.072871 V 32.582966 H 70.758054 V 21.249761 q 0,-2.257787 0.864087,-4.338493 0.864085,-2.080706 2.459321,-3.674438 1.595234,-1.593732 3.677903,-2.457003 2.082668,-0.8632719 4.342586,-0.8632719 v 5.6666029 q -2.348541,0 -4.010245,1.660137 -1.661704,1.660137 -1.661704,4.006466 z m 23.647398,2.921841 4.85218,2.899708 q -0.70899,1.195298 -1.70602,2.191381 -1.59524,1.593732 -3.677907,2.457004 -2.082661,0.863271 -4.342576,0.863271 -2.259925,0 -4.342587,-0.863271 -2.082671,-0.863272 -3.677906,-2.457004 -1.595236,-1.593732 -2.459321,-3.674438 -0.864086,-2.080705 -0.864086,-4.338492 0,-2.257787 0.864086,-4.338493 0.864085,-2.080706 2.459321,-3.674438 1.595235,-1.593732 3.677906,-2.457003 2.082662,-0.8632719 4.342587,-0.8632719 2.259915,0 4.342576,0.8632719 2.082667,0.863271 3.677907,2.457003 0.99703,0.996083 1.70602,2.191382 l -4.85218,2.899707 q -0.354493,-0.575515 -0.864083,-1.084624 -1.661703,-1.660137 -4.01024,-1.660137 -2.348547,0 -4.01025,1.660137 -1.661702,1.660137 -1.661702,4.006466 0,2.346328 1.661702,4.006465 1.661703,1.660137 4.01025,1.660137 2.348537,0 4.01024,-1.660137 0.50959,-0.509109 0.864083,-1.084624 z m 14.40833,8.411364 h -5.67194 V 9.9165551 h 5.67194 z M 111.64976,7.0832536 q -1.4623,0 -2.50363,-1.0403529 -1.04133,-1.0403528 -1.04133,-2.5012738 0,-1.4609211 1.04133,-2.501274 Q 110.18746,4.4816635e-8 111.64976,4.4816635e-8 q 1.4623,0 2.50364,1.040352855183365 1.04133,1.0403529 1.04133,2.501274 0,1.460921 -1.04133,2.5012738 -1.04134,1.0403529 -2.50364,1.0403529 z"
     id="text1"
     aria-label="merci" />
  <path
     d="M 1.4228493,53.47534 V 42.708657 h 2.040003 V 53.47534 Z m 1.020001,-12.920019 q -0.566667,0 -0.929334,-0.362667 -0.362667,-0.385334 -0.362667,-0.952002 0,-0.544001 0.362667,-0.906668 0.362667,-0.385334 0.929334,-0.385334 0.566668,0 0.929335,0.385334 0.362667,0.362667 0.362667,0.906668 0,0.566668 -0.362667,0.952002 -0.362667,0.362667 -0.929335,0.362667 z M 7.3775443,53.47534 V 42.708657 h 2.040003 V 53.47534 Z m 7.2760117,0 v -6.505343 q 0,-1.201335 -0.748001,-1.881336 -0.725334,-0.702668 -1.836003,-0.702668 -0.748001,0 -1.337335,0.317334 -0.589334,0.317334 -0.9520017,0.884001 -0.362668,0.566668 -0.362668,1.360002 l -0.838668,-0.408 q 0,-1.224002 0.521335,-2.13067 0.544,-0.906668 1.4733357,-1.405335 0.929335,-0.521335 2.085337,-0.521335 1.133335,0 2.040003,0.498668 0.929334,0.498667 1.450668,1.405335 0.544001,0.906668 0.544001,2.153337 v 6.93601 z m 7.276011,0 v -6.505343 q 0,-1.201335 -0.748001,-1.881336 -0.725335,-0.702668 -1.813336,-0.702668 -0.748001,0 -1.360002,0.317334 -0.589334,0.317334 -0.952002,0.884001 -0.362667,0.566668 -0.362667,1.360002 l -1.156001,-0.408 q 0.068,-1.246669 0.657334,-2.13067 0.612001,-0.906668 1.564002,-1.405335 0.952002,-0.521335 2.085337,-0.521335 1.178668,0 2.108003,0.498668 0.929334,0.498667 1.473335,1.405335 0.566668,0.906668 0.566668,2.176003 v 6.913344 z m 5.727996,0 V 42.708657 h 2.040003 V 53.47534 Z m 7.276011,0 v -6.505343 q 0,-1.201335 -0.748002,-1.881336 -0.725334,-0.702668 -1.836002,-0.702668 -0.748001,0 -1.337336,0.317334 -0.589334,0.317334 -0.952001,0.884001 -0.362667,0.566668 -0.362667,1.360002 l -0.838668,-0.408 q 0,-1.224002 0.521334,-2.13067 0.544001,-0.906668 1.473335,-1.405335 0.929335,-0.521335 2.085337,-0.521335 1.133335,0 2.040003,0.498668 0.929335,0.498667 1.450669,1.405335 0.544001,0.906668 0.544001,2.153337 v 6.93601 z m 7.27601,0 v -6.505343 q 0,-1.201335 -0.748001,-1.881336 -0.725334,-0.702668 -1.813336,-0.702668 -0.748001,0 -1.360002,0.317334 -0.589334,0.317334 -0.952001,0.884001 -0.362667,0.566668 -0.362667,1.360002 l -1.156002,-0.408 q 0.068,-1.246669 0.657334,-2.13067 0.612001,-0.906668 1.564003,-1.405335 0.952001,-0.521335 2.085336,-0.521335 1.178668,0 2.108003,0.498668 0.929335,0.498667 1.473336,1.405335 0.566667,0.906668 0.566667,2.176003 v 6.913344 z m 10.646672,0.226667 q -1.586669,0 -2.856004,-0.748001 -1.269335,-0.748001 -2.017336,-2.017336 -0.748001,-1.292002 -0.748001,-2.878671 0,-1.564003 0.748001,-2.810671 0.748001,-1.269335 2.017336,-2.017336 1.269335,-0.748002 2.856004,-0.748002 1.564003,0 2.833338,0.748002 1.292002,0.725334 2.040003,1.994669 0.748001,1.269335 0.748001,2.833338 0,1.586669 -0.748001,2.878671 -0.748001,1.269335 -2.040003,2.017336 -1.269335,0.748001 -2.833338,0.748001 z m 0,-1.972003 q 1.020002,0 1.813337,-0.476001 0.793334,-0.476 1.246668,-1.292001 0.453334,-0.838668 0.453334,-1.904003 0,-1.042669 -0.476001,-1.85867 -0.453334,-0.816001 -1.246668,-1.269335 -0.770668,-0.476001 -1.79067,-0.476001 -1.020001,0 -1.813336,0.476001 -0.793334,0.453334 -1.246668,1.269335 -0.453334,0.816001 -0.453334,1.85867 0,1.065335 0.453334,1.904003 0.453334,0.816001 1.246668,1.292001 0.793335,0.476001 1.813336,0.476001 z m 14.477353,1.972003 q -1.224002,0 -2.221337,-0.498667 -0.974668,-0.521334 -1.564002,-1.428002 -0.589335,-0.906668 -0.657335,-2.06267 V 46.47133 q 0.068,-1.178669 0.657335,-2.06267 0.612001,-0.906668 1.586669,-1.405335 0.997335,-0.521335 2.19867,-0.521335 1.473335,0 2.652004,0.748002 1.201335,0.748001 1.881336,2.017336 0.680001,1.269335 0.680001,2.856004 0,1.586669 -0.680001,2.856004 -0.680001,1.269336 -1.881336,2.017337 -1.178669,0.725334 -2.652004,0.725334 z M 61.666934,53.47534 V 37.291316 h 2.040003 v 8.046679 l -0.385334,2.60667 0.385334,2.629337 v 2.901338 z m 5.326674,-1.700002 q 1.020002,0 1.790669,-0.476001 0.770668,-0.476001 1.224002,-1.292002 0.453334,-0.838668 0.453334,-1.92667 0,-1.065335 -0.453334,-1.904002 -0.453334,-0.838668 -1.224002,-1.292002 -0.770667,-0.476001 -1.768002,-0.476001 -1.020002,0 -1.790669,0.476001 -0.770668,0.453334 -1.201336,1.292002 -0.430667,0.838667 -0.430667,1.926669 0,1.065335 0.408001,1.904003 0.430667,0.816001 1.201335,1.292002 0.793334,0.476001 1.790669,0.476001 z m 8.788029,1.700002 V 42.708657 H 77.82164 V 53.47534 Z m 1.020002,-12.920019 q -0.566668,0 -0.929335,-0.362667 -0.362667,-0.385334 -0.362667,-0.952002 0,-0.544001 0.362667,-0.906668 0.362667,-0.385334 0.929335,-0.385334 0.566667,0 0.929335,0.385334 0.362667,0.362667 0.362667,0.906668 0,0.566668 -0.362667,0.952002 -0.362668,0.362667 -0.929335,0.362667 z M 81.736334,53.47534 V 37.291316 h 2.040003 V 53.47534 Z m 5.954674,0 V 42.708657 h 2.040003 V 53.47534 Z m 1.020001,-12.920019 q -0.566667,0 -0.929334,-0.362667 -0.362668,-0.385334 -0.362668,-0.952002 0,-0.544001 0.362668,-0.906668 0.362667,-0.385334 0.929334,-0.385334 0.566668,0 0.929335,0.385334 0.362665,0.362667 0.362665,0.906668 0,0.566668 -0.362665,0.952002 -0.362667,0.362667 -0.929335,0.362667 z m 9.92137,13.146686 q -1.60934,0 -2.90134,-0.725334 -1.292,-0.748001 -2.04,-2.017337 -0.748,-1.269335 -0.748,-2.878671 0,-1.586669 0.72533,-2.856004 0.748,-1.269335 1.99467,-1.994669 1.26934,-0.748002 2.83334,-0.748002 1.496,0 2.629341,0.680001 1.156,0.680001 1.79067,1.881337 0.65733,1.201335 0.65733,2.720004 0,0.226667 -0.0227,0.498667 -0.0227,0.249334 -0.0907,0.589334 h -9.089351 v -1.700002 h 8.001351 l -0.74801,0.657334 q 0,-1.088002 -0.38533,-1.836003 -0.38533,-0.770668 -1.088,-1.178668 -0.702671,-0.430667 -1.700001,-0.430667 -1.04267,0 -1.83601,0.453334 -0.79333,0.453334 -1.224,1.269335 -0.43067,0.816001 -0.43067,1.926669 0,1.133335 0.45334,1.99467 0.45333,0.838668 1.292,1.314669 0.83867,0.453334 1.92667,0.453334 0.90667,0 1.654671,-0.317334 0.77067,-0.317334 1.31467,-0.952002 l 1.31467,1.337336 q -0.77067,0.906668 -1.90401,1.382668 -1.110661,0.476001 -2.380001,0.476001 z M 106.69505,53.47534 V 42.708657 h 2.04 V 53.47534 Z m 2.04,-6.142676 -0.77067,-0.34 q 0,-2.06267 0.952,-3.286672 0.952,-1.224002 2.74267,-1.224002 0.816,0 1.47334,0.294668 0.65733,0.272 1.224,0.929334 l -1.33734,1.382669 q -0.34,-0.362667 -0.748,-0.521334 -0.408,-0.158667 -0.952,-0.158667 -1.13333,0 -1.85867,0.725334 -0.72533,0.725335 -0.72533,2.19867 z"
     id="text2"
     style="font-size:22.6667px;font-family:Outfit;-inkscape-font-specification:'Outfit, Normal';letter-spacing:0.9px;fill:#333333;stroke:#000000;stroke-width:0"
     aria-label="immobilier" />
</svg>
