<?xml version="1.0" encoding="UTF-8" standalone="no"?>
<svg
   version="1.2"
   viewBox="0 0 97.631902 42.793411"
   width="97.631905"
   height="42.793411"
   id="svg1"
   xmlns="http://www.w3.org/2000/svg"
   xmlns:svg="http://www.w3.org/2000/svg">
  <defs
     id="defs1" />
  <style
     id="style1">
		.s0 { fill: #3a3b46 } 
	</style>
  <path
     style="font-size:22.6771px;line-height:45.65px;font-family:Evermore;-inkscape-font-specification:'Evermore, Normal';letter-spacing:2px;fill:#333333;stroke:#000000;stroke-width:0"
     d="m 4.8071901,15.985179 v 8.525429 H 1.0122028e-7 v -8.525429 q 0,-1.698425 0.73234500877972,-3.26364 0.73234569,-1.565216 2.08436759,-2.7641041 1.3520228,-1.198889 3.117163,-1.848286 1.765141,-0.649398 3.680506,-0.649398 1.9153653,0 3.6805053,0.649398 1.765141,0.649397 3.117163,1.848286 0.20656,0.1831631 0.413117,0.3829771 0.206559,-0.199814 0.413119,-0.3829771 1.352022,-1.198889 3.117162,-1.848286 1.765141,-0.649398 3.680506,-0.649398 1.915365,0 3.680505,0.649398 1.76514,0.649397 3.117163,1.848286 1.352022,1.1988881 2.084368,2.7641041 0.732345,1.565215 0.732345,3.26364 v 8.525429 h -4.80719 v -8.525429 q 0,-1.765031 -1.408357,-3.013873 -1.408357,-1.248842 -3.398834,-1.248842 -1.990478,0 -3.398834,1.248842 -1.408357,1.248842 -1.408357,3.013873 v 8.525429 h -4.80719 v -8.525429 q 0,-1.765031 -1.408357,-3.013873 -1.408357,-1.248842 -3.3988343,-1.248842 -1.990478,0 -3.398834,1.248842 -1.4083576,1.248842 -1.4083576,3.013873 z M 49.955564,12.921353 q -1.333245,-1.198889 -3.154719,-1.198889 -1.990478,0 -3.398833,1.248842 -1.408358,1.248842 -1.408358,3.013873 0,1.765031 1.408358,3.013873 1.408355,1.248841 3.398833,1.248841 1.990477,0 3.398833,-1.248841 0.431898,-0.382979 0.732346,-0.815911 l 4.112402,2.181311 q -0.600899,0.899166 -1.445914,1.648472 -1.352021,1.198888 -3.117162,1.848286 -1.765139,0.649398 -3.680505,0.649398 -1.915366,0 -3.680505,-0.649398 -1.765141,-0.649398 -3.117163,-1.848286 -1.352023,-1.198889 -2.084368,-2.764104 -0.732346,-1.565216 -0.732346,-3.263641 0,-1.698425 0.732346,-3.26364 0.732345,-1.565216 2.084368,-2.7641041 1.352022,-1.198889 3.117163,-1.848286 1.765139,-0.649398 3.680505,-0.649398 1.915366,0 3.680505,0.649398 1.765141,0.649397 3.117162,1.848286 1.352024,1.1988881 2.084368,2.7641041 0.657234,1.415354 0.732347,2.930615 l -10.778624,2.913965 -1.27691,-4.112853 z m 14.821759,3.063826 v 8.525429 h -4.807191 v -8.525429 q 0,-1.698425 0.732346,-3.26364 0.732345,-1.565216 2.084368,-2.7641041 1.352021,-1.198889 3.117162,-1.848286 1.76514,-0.649398 3.680506,-0.649398 v 4.2627131 q -1.990477,0 -3.398835,1.248842 -1.408356,1.248842 -1.408356,3.013873 z m 20.042065,2.197962 4.112406,2.181311 q -0.600896,0.899166 -1.445917,1.648472 -1.352025,1.198888 -3.117164,1.848286 -1.765135,0.649398 -3.680498,0.649398 -1.915372,0 -3.680508,-0.649398 -1.765142,-0.649398 -3.117164,-1.848286 -1.352023,-1.198889 -2.084368,-2.764104 -0.732346,-1.565216 -0.732346,-3.263641 0,-1.698425 0.732346,-3.26364 0.732345,-1.565216 2.084368,-2.7641041 1.352022,-1.198889 3.117164,-1.848286 1.765136,-0.649398 3.680508,-0.649398 1.915363,0 3.680498,0.649398 1.765139,0.649397 3.117164,1.848286 0.845021,0.7493051 1.445917,1.6484711 l -4.112406,2.181312 q -0.300446,-0.432933 -0.732343,-0.815912 -1.408356,-1.248842 -3.39883,-1.248842 -1.990483,0 -3.398839,1.248842 -1.408355,1.248842 -1.408355,3.013873 0,1.765031 1.408355,3.013873 1.408356,1.248841 3.398839,1.248841 1.990474,0 3.39883,-1.248841 0.431897,-0.382979 0.732343,-0.815911 z M 97.03099,24.510608 H 92.223808 V 7.4597509 H 97.03099 Z M 94.6274,5.3283927 q -1.239356,0 -2.121923,-0.7826071 -0.882567,-0.782608 -0.882567,-1.8815891 0,-1.0989811 0.882567,-1.88158883 Q 93.388044,-1.2707618e-7 94.6274,-1.2707618e-7 q 1.23936,0 2.12193,0.78260779707618 0.88257,0.78260773 0.88257,1.88158883 0,1.0989811 -0.88257,1.8815891 -0.88257,0.7826071 -2.12193,0.7826071 z"
     id="text1"
     aria-label="merci" />
  <path
     d="M 0.94614261,42.604416 V 33.626953 H 2.6834177 v 8.977463 z M 1.8147797,31.831461 q -0.4825759,0 -0.7914247,-0.302399 -0.30884869,-0.321299 -0.30884869,-0.793797 0,-0.453599 0.30884869,-0.755997 0.3088488,-0.321299 0.7914247,-0.321299 0.4825768,0 0.7914256,0.321299 0.3088487,0.302398 0.3088487,0.755997 0,0.472498 -0.3088487,0.793797 -0.3088488,0.302399 -0.7914256,0.302399 z m 4.202406,10.772955 v -8.977463 h 1.737276 v 8.977463 z m 6.1962833,0 v -5.424277 q 0,-1.001696 -0.637001,-1.568694 -0.617698,-0.585898 -1.563548,-0.585898 -0.6370013,0 -1.1388803,0.264599 -0.50188,0.264599 -0.81073,0.737097 -0.308848,0.472498 -0.308848,1.133995 L 7.0402477,36.82104 q 0,-1.020596 0.443971,-1.776593 0.463272,-0.755997 1.254699,-1.171794 0.791426,-0.4347 1.7758823,-0.4347 0.965153,0 1.737275,0.415799 0.791425,0.415798 1.235395,1.171795 0.463273,0.755997 0.463273,1.795493 v 5.783376 z m 6.196281,0 v -5.424277 q 0,-1.001696 -0.637002,-1.568694 -0.617697,-0.585898 -1.544243,-0.585898 -0.637001,0 -1.158184,0.264599 -0.501879,0.264599 -0.810729,0.737097 -0.308849,0.472498 -0.308849,1.133995 L 12.966288,36.82104 q 0.05791,-1.039496 0.559788,-1.776593 0.521183,-0.755997 1.331911,-1.171794 0.810729,-0.4347 1.775882,-0.4347 1.003758,0 1.795184,0.415799 0.791424,0.415798 1.254699,1.171795 0.482576,0.755997 0.482576,1.814392 v 5.764477 z m 4.877985,0 v -8.977463 h 1.737275 v 8.977463 z m 6.196281,0 v -5.424277 q 0,-1.001696 -0.637002,-1.568694 -0.617697,-0.585898 -1.563546,-0.585898 -0.637002,0 -1.138881,0.264599 -0.50188,0.264599 -0.810728,0.737097 -0.308849,0.472498 -0.308849,1.133995 L 24.310796,36.82104 q 0,-1.020596 0.443971,-1.776593 0.463274,-0.755997 1.254699,-1.171794 0.791425,-0.4347 1.775881,-0.4347 0.965152,0 1.737275,0.415799 0.791425,0.415798 1.235395,1.171795 0.463274,0.755997 0.463274,1.795493 v 5.783376 z m 6.19628,0 v -5.424277 q 0,-1.001696 -0.637,-1.568694 -0.617698,-0.585898 -1.544245,-0.585898 -0.637001,0 -1.158184,0.264599 -0.501878,0.264599 -0.810727,0.737097 -0.308849,0.472498 -0.308849,1.133995 L 30.236835,36.82104 q 0.05791,-1.039496 0.559789,-1.776593 0.521182,-0.755997 1.33191,-1.171794 0.810729,-0.4347 1.775881,-0.4347 1.003759,0 1.795185,0.415799 0.791426,0.415798 1.254699,1.171795 0.482576,0.755997 0.482576,1.814392 v 5.764477 z m 9.066751,0.188999 q -1.351214,0 -2.432185,-0.623698 -1.080972,-0.623697 -1.717972,-1.682092 -0.637001,-1.077296 -0.637001,-2.40029 0,-1.304095 0.637001,-2.34359 0.637,-1.058396 1.717972,-1.682093 1.080971,-0.623699 2.432185,-0.623699 1.331911,0 2.412882,0.623699 1.100274,0.604796 1.737275,1.663192 0.637001,1.058396 0.637001,2.362491 0,1.322994 -0.637001,2.40029 -0.637001,1.058395 -1.737275,1.682092 -1.080971,0.623698 -2.412882,0.623698 z m 0,-1.644294 q 0.868638,0 1.544245,-0.396898 0.675607,-0.396898 1.061667,-1.077295 0.386062,-0.699297 0.386062,-1.587593 0,-0.869397 -0.405365,-1.549794 -0.38606,-0.680398 -1.061668,-1.058396 -0.656303,-0.396898 -1.524941,-0.396898 -0.868638,0 -1.544245,0.396898 -0.675606,0.377998 -1.061668,1.058396 -0.386061,0.680397 -0.386061,1.549794 0,0.888296 0.386061,1.587593 0.386062,0.680397 1.061668,1.077295 0.675607,0.396898 1.544245,0.396898 z m 12.328973,1.644294 q -1.042364,0 -1.891699,-0.415798 Q 54.35429,41.942919 53.85241,41.186922 53.35053,40.430925 53.292621,39.467029 V 36.76434 q 0.05791,-0.982796 0.559789,-1.719893 0.521183,-0.755997 1.351214,-1.171794 0.849335,-0.4347 1.872396,-0.4347 1.254698,0 2.258458,0.623699 1.023063,0.623697 1.602154,1.682093 0.579092,1.058395 0.579092,2.381389 0,1.322995 -0.579092,2.38139 -0.579091,1.058397 -1.602154,1.682094 -1.00376,0.604797 -2.258458,0.604797 z M 52.250257,42.604416 V 29.109872 h 1.737274 v 6.709472 l -0.328152,2.173491 0.328152,2.192391 v 2.41919 z m 4.536218,-1.417494 q 0.868637,0 1.52494,-0.396899 0.656304,-0.396898 1.042366,-1.077295 0.386061,-0.699298 0.386061,-1.606494 0,-0.888296 -0.386061,-1.587592 -0.386062,-0.699298 -1.042366,-1.077296 -0.656303,-0.396899 -1.505637,-0.396899 -0.868638,0 -1.524942,0.396899 -0.656304,0.377998 -1.023062,1.077296 -0.366758,0.699296 -0.366758,1.606492 0,0.888296 0.347456,1.587594 0.366757,0.680397 1.023061,1.077295 0.675607,0.396899 1.524942,0.396899 z m 7.483921,1.417494 v -8.977463 h 1.737275 v 8.977463 z m 0.868638,-10.772955 q -0.482576,0 -0.791425,-0.302399 -0.308849,-0.321299 -0.308849,-0.793797 0,-0.453599 0.308849,-0.755997 0.308849,-0.321299 0.791425,-0.321299 0.482576,0 0.791426,0.321299 0.308849,0.302398 0.308849,0.755997 0,0.472498 -0.308849,0.793797 -0.30885,0.302399 -0.791426,0.302399 z m 4.202407,10.772955 V 29.109872 h 1.737275 v 13.494544 z m 5.071025,0 v -8.977463 h 1.737275 v 8.977463 z m 0.868637,-10.772955 q -0.482576,0 -0.791425,-0.302399 -0.308849,-0.321299 -0.308849,-0.793797 0,-0.453599 0.308849,-0.755997 0.308849,-0.321299 0.791425,-0.321299 0.482578,0 0.791426,0.321299 0.308847,0.302398 0.308847,0.755997 0,0.472498 -0.308847,0.793797 -0.308848,0.302399 -0.791426,0.302399 z m 8.44908,10.961954 q -1.370521,0 -2.470793,-0.604797 -1.100273,-0.623697 -1.737272,-1.682094 -0.637,-1.058395 -0.637,-2.40029 0,-1.322994 0.617694,-2.38139 0.637,-1.058396 1.698669,-1.663192 1.080975,-0.623699 2.412884,-0.623699 1.274,0 2.239158,0.566998 0.984454,0.566997 1.524942,1.568694 0.559785,1.001696 0.559785,2.267991 0,0.188999 -0.01933,0.415798 -0.01933,0.207899 -0.07724,0.491398 h -7.740529 v -1.417494 h 6.813984 l -0.637009,0.548097 q 0,-0.907196 -0.328149,-1.530894 -0.328148,-0.642597 -0.926545,-0.982795 -0.598397,-0.359098 -1.447728,-0.359098 -0.887942,0 -1.563554,0.377998 -0.675602,0.377998 -1.042363,1.058395 -0.36676,0.680398 -0.36676,1.606493 0,0.944997 0.386066,1.663194 0.386057,0.699297 1.100273,1.096196 0.714214,0.377998 1.640759,0.377998 0.772124,0 1.409125,-0.264599 0.656306,-0.264599 1.119579,-0.793797 l 1.119578,1.115095 q -0.656306,0.755998 -1.621462,1.152895 -0.945844,0.396899 -2.02682,0.396899 z m 6.866205,-0.188999 v -8.977463 h 1.737276 v 8.977463 z m 1.737276,-5.12188 -0.656308,-0.283498 q 0,-1.719893 0.810733,-2.740488 0.810724,-1.020597 2.335664,-1.020597 0.694914,0 1.254707,0.2457 0.55978,0.226799 1.04236,0.774897 l -1.13889,1.152895 q -0.289534,-0.302399 -0.636991,-0.434698 -0.347457,-0.1323 -0.810724,-0.1323 -0.965149,0 -1.582859,0.604798 -0.617692,0.604797 -0.617692,1.833291 z"
     id="text2"
     style="font-size:22.6667px;font-family:Outfit;-inkscape-font-specification:'Outfit, Normal';letter-spacing:0.9px;fill:#333333;stroke:#000000;stroke-width:0"
     aria-label="immobilier" />
</svg>
