<svg width="141" height="60" viewBox="0 0 141 60" fill="none" xmlns="http://www.w3.org/2000/svg">
<g clip-path="url(#clip0_184_554)">
<path d="M118.323 32.3137C118.602 35.5955 116.173 38.4852 112.9 38.7676C109.624 39.0469 106.742 36.6124 106.463 33.3275C106.181 30.0426 108.61 27.1561 111.886 26.8736C115.162 26.5943 118.044 29.0288 118.323 32.3137Z" fill="#3A3B46"/>
<path d="M124.58 38.7875C129.156 30.1605 122.461 18.8377 111.935 19.2983L121.363 0.015625L140.401 38.7875H124.581H124.58Z" fill="#3A3B46"/>
<path d="M12.9583 34.8997H5.3618L4.01951 38.7896H0L6.94689 19.3931H11.4005L18.3474 38.7896H14.3006L12.9583 34.8997ZM11.9198 31.8319L9.15952 23.832L6.39926 31.8319H11.9187H11.9198Z" fill="#3A3B46"/>
<path d="M24.3368 35.0094L28.1618 23.3662H32.2329L26.54 38.7896H22.0769L16.4124 23.3662H20.5107L24.3357 35.0094H24.3368Z" fill="#3A3B46"/>
<path d="M47.2146 32.1058H36.1483C36.2387 33.2018 36.6213 34.0607 37.2962 34.6804C37.9699 35.3011 38.7993 35.612 39.7831 35.612C41.2043 35.612 42.2154 35.0008 42.8156 33.7762H46.9413C46.504 35.2379 45.6663 36.4383 44.427 37.3783C43.1877 38.3194 41.6678 38.7895 39.8641 38.7895C38.4062 38.7895 37.0996 38.4659 35.9434 37.8167C34.7861 37.1686 33.8842 36.2507 33.2378 35.063C32.5913 33.8763 32.2676 32.5063 32.2676 30.9539C32.2676 29.4016 32.5861 28.0042 33.2241 26.8175C33.8611 25.6308 34.7545 24.7171 35.9024 24.0774C37.0502 23.4388 38.3704 23.1184 39.8641 23.1184C41.3577 23.1184 42.5917 23.4293 43.7301 24.05C44.8685 24.6708 45.7525 25.5528 46.3811 26.6942C47.0096 27.8355 47.3239 29.1465 47.3239 30.6251C47.3239 31.1731 47.2871 31.6664 47.2146 32.1048V32.1058ZM43.3622 29.5302C43.3433 28.5437 42.9891 27.7544 42.2964 27.16C41.6037 26.5667 40.7565 26.2695 39.7547 26.2695C38.8077 26.2695 38.0099 26.5572 37.3634 27.1326C36.717 27.708 36.3207 28.5068 36.1746 29.5302H43.3612H43.3622Z" fill="#3A3B46"/>
<path d="M62.4179 24.8595C63.5289 26.0009 64.085 27.5943 64.085 29.6399V38.7896H60.2599V30.1594C60.2599 28.9538 59.9593 28.0274 59.3581 27.3793C58.7568 26.7312 57.9369 26.4066 56.8984 26.4066C55.8599 26.4066 55.0085 26.7312 54.3978 27.3793C53.7871 28.0274 53.4823 28.9549 53.4823 30.1594V38.7896H49.6572V23.3662H53.4823V25.2568C53.9921 24.5992 54.6438 24.0839 55.4363 23.7087C56.2289 23.3346 57.0981 23.147 58.0463 23.147C59.85 23.147 61.3069 23.7182 62.4179 24.8595Z" fill="#3A3B46"/>
<path d="M81.3667 23.3662V38.7896H77.5143V36.625C77.0224 37.2826 76.3801 37.799 75.5876 38.1731C74.795 38.5472 73.9341 38.7348 73.005 38.7348C71.8203 38.7348 70.7734 38.484 69.8631 37.9813C68.9518 37.4786 68.237 36.7398 67.7178 35.7618C67.1985 34.7849 66.9389 33.6204 66.9389 32.2693V23.3662H70.7639V31.7213C70.7639 32.9269 71.0646 33.8543 71.6658 34.5025C72.2671 35.1506 73.0869 35.4752 74.1255 35.4752C75.164 35.4752 76.0112 35.1516 76.6114 34.5025C77.2126 33.8543 77.5132 32.9269 77.5132 31.7213V23.3662H81.3656H81.3667Z" fill="#3A3B46"/>
<path d="M98.6302 32.1058H87.564C87.6544 33.2018 88.037 34.0607 88.7118 34.6804C89.3856 35.3011 90.2149 35.612 91.1988 35.612C92.6199 35.612 93.6311 35.0008 94.2313 33.7762H98.3569C97.9197 35.2379 97.0819 36.4383 95.8427 37.3783C94.6034 38.3194 93.0835 38.7895 91.2797 38.7895C89.8218 38.7895 88.5153 38.4659 87.359 37.8167C86.2017 37.1686 85.2999 36.2507 84.6534 35.063C84.007 33.8763 83.6832 32.5063 83.6832 30.9539C83.6832 29.4016 84.0017 28.0042 84.6398 26.8175C85.2767 25.6308 86.1702 24.7171 87.318 24.0774C88.4659 23.4388 89.7861 23.1184 91.2797 23.1184C92.7734 23.1184 94.0074 23.4293 95.1458 24.05C96.2841 24.6708 97.1681 25.5528 97.7967 26.6942C98.4253 27.8355 98.7396 29.1465 98.7396 30.6251C98.7396 31.1731 98.7028 31.6664 98.6302 32.1048V32.1058ZM94.7768 29.5302C94.7579 28.5437 94.4037 27.7544 93.711 27.16C93.0183 26.5667 92.1711 26.2695 91.1693 26.2695C90.2223 26.2695 89.4245 26.5572 88.778 27.1326C88.1316 27.708 87.7353 28.5068 87.5892 29.5302H94.7758H94.7768Z" fill="#3A3B46"/>
<path d="M17.93 19.3922C17.0176 19.3922 16.1189 19.271 15.2328 19.0297C14.3467 18.7883 12.0805 17.7608 11.4677 17.315L12.7626 13.636H12.8688L13.6319 15.9207C13.9304 16.8313 14.3309 17.4341 14.8071 17.8683C15.4272 18.4332 17.0008 18.8347 17.93 18.8347C18.9643 18.8347 19.7852 18.5101 20.3896 17.8599C20.9951 17.2096 21.2967 16.4298 21.2967 15.5192C21.2967 15.0365 21.2263 14.5813 21.0865 14.1545C20.9457 13.7276 20.6787 13.2818 20.2845 12.8171C19.8903 12.3534 19.307 11.8328 18.5354 11.2563C17.5884 10.5323 16.8599 9.85361 16.3522 9.22234C15.8435 8.59107 15.4924 7.96824 15.3001 7.35594C15.1067 6.74258 15.011 6.1208 15.011 5.48953C15.011 4.39351 15.2738 3.43238 15.8004 2.60614C16.327 1.77991 17.0586 1.13916 17.9972 0.683884C18.9349 0.228612 20.0007 0.000976562 21.1937 0.000976562C22.0704 0.000976562 22.9438 0.126387 23.811 0.377208C24.6793 0.628029 25.4024 0.967375 25.9816 1.39419L25.2448 5.29457H24.982L24.4554 3.45556C24.1747 2.47125 23.8058 1.74197 23.3506 1.26878C22.8944 0.795595 22.2018 0.558474 21.2726 0.558474C20.3434 0.558474 19.5929 0.836696 18.9706 1.39419C18.3473 1.95169 18.0361 2.69467 18.0361 3.62313C18.0361 4.42196 18.238 5.14597 18.6416 5.79621C19.0452 6.44645 19.7726 7.17151 20.8248 7.96929C22.2102 9.04634 23.1709 10.017 23.7059 10.8811C24.2409 11.7453 24.5079 12.678 24.5079 13.6813C24.5079 14.87 24.2273 15.887 23.666 16.7322C23.1047 17.5774 22.3279 18.2319 21.3377 18.6966C20.3465 19.1603 19.2113 19.3932 17.931 19.3932L17.93 19.3922Z" fill="#3A3B46"/>
<path d="M27.7634 19.3859C27.22 19.3859 26.7722 19.2415 26.4211 18.9549C26.0701 18.6672 25.8945 18.2456 25.8945 17.6881C25.8945 17.3646 25.9292 16.9778 25.9996 16.5289C26.0701 16.0799 26.1489 15.6299 26.2361 15.181L27.4723 9.11488C27.6299 8.37823 27.3756 7.85656 26.7092 7.55094L26.2887 7.3349L26.315 7.03876L31.2616 5.58336L31.5244 5.82575L29.4726 15.5846C29.4021 15.9081 29.3496 16.1821 29.3149 16.4066C29.2792 16.6311 29.2623 16.8513 29.2623 17.0674C29.2623 17.4626 29.4379 17.6607 29.789 17.6607C30.0517 17.6607 30.3156 17.5754 30.5784 17.4046C30.8411 17.2339 31.1743 16.9504 31.578 16.5552L31.8145 16.7976C31.3762 17.4626 30.8191 18.0601 30.1442 18.5902C29.4684 19.1203 28.6748 19.3859 27.7634 19.3859ZM30.221 3.67902C29.769 3.67902 29.378 3.52621 29.0479 3.22059C28.7168 2.91496 28.5518 2.50606 28.5518 1.99388C28.5518 1.41531 28.7494 0.940012 29.1446 0.567995C29.5398 0.195979 29.9876 0.010498 30.4869 0.010498C30.9862 0.010498 31.3656 0.167525 31.6726 0.481578C31.9785 0.795631 32.1319 1.20032 32.1319 1.69669C32.1319 2.2584 31.9385 2.72948 31.5517 3.10993C31.1649 3.49038 30.7213 3.68007 30.221 3.68007V3.67902Z" fill="#3A3B46"/>
<path d="M34.235 19.3405C33.7263 19.3405 33.2743 19.1835 32.8801 18.8683C32.4859 18.5543 32.2883 18.118 32.2883 17.5605C32.2883 17.0936 32.4281 16.7163 32.7088 16.4286C32.9894 16.1409 33.3489 15.9976 33.7872 15.9976C34.3307 15.9976 34.8131 16.2674 35.2346 16.8059C35.4806 17.1474 35.7213 17.3223 35.9578 17.3318C36.1943 17.3413 36.4529 17.1474 36.7335 16.7522C37.0668 16.2853 37.4126 15.7953 37.7731 15.2831C38.1326 14.7709 38.4963 14.2366 38.8652 13.6791L37.5229 9.44674C37.3127 8.78175 37.1056 8.31489 36.9049 8.0451C36.7031 7.77531 36.4529 7.64041 36.1554 7.64041C35.9799 7.64041 35.7644 7.69416 35.5111 7.80165C35.2567 7.90915 34.9981 8.14311 34.7354 8.50248L34.42 8.15154C35.613 6.42635 36.7787 5.56323 37.9192 5.56323C38.6035 5.56323 39.1122 5.76136 39.4454 6.15656C39.7787 6.55176 40.0856 7.17249 40.3662 8.01664L41.1819 10.5775C41.6728 9.75131 42.1111 9.04522 42.4969 8.46138C42.8826 7.87753 43.1812 7.45071 43.3914 7.18092C43.8823 6.55176 44.3469 6.12495 44.7862 5.90047C45.2245 5.676 45.6629 5.56323 46.1012 5.56323C46.5395 5.56323 46.9515 5.69813 47.2848 5.96792C47.618 6.23771 47.784 6.63291 47.784 7.15458C47.784 7.67624 47.639 8.05353 47.3499 8.34123C47.0609 8.62894 46.7224 8.77227 46.3366 8.77227C45.7932 8.77227 45.3107 8.52039 44.8892 8.0177C44.679 7.74791 44.4898 7.59615 44.3237 7.55926C44.1566 7.52343 43.9327 7.67624 43.6531 8.0177C43.4071 8.32332 43.0834 8.76384 42.6798 9.3382C42.2761 9.91361 41.8462 10.5333 41.39 11.1983L42.8637 15.7278C43.0561 16.3749 43.2411 16.8154 43.4166 17.0483C43.5921 17.2823 43.8202 17.3993 44.1009 17.3993C44.3637 17.3993 44.6275 17.3097 44.8903 17.1295C45.1531 16.9503 45.4432 16.6984 45.7585 16.3749L46.0739 16.671C45.5998 17.4435 45.0564 18.0906 44.4425 18.6123C43.8286 19.1329 43.1622 19.3942 42.4433 19.3942C41.8998 19.3942 41.4258 19.2414 41.0221 18.9358C40.6185 18.6302 40.2853 18.0642 40.0225 17.237L39.0755 14.3251C38.6193 15.0618 38.1936 15.7225 37.7994 16.3064C37.4052 16.8902 37.0405 17.4161 36.7073 17.884C36.3741 18.3878 36.0188 18.7556 35.6414 18.9895C35.2641 19.2224 34.7953 19.3405 34.234 19.3405H34.235Z" fill="#3A3B46"/>
<path d="M50.1776 19.3859C49.6342 19.3859 49.1864 19.2416 48.8353 18.9549C48.4843 18.6672 48.3087 18.2457 48.3087 17.6882C48.3087 17.3646 48.3434 16.9778 48.4138 16.5289C48.4843 16.0799 48.5631 15.6299 48.6503 15.181L49.8865 9.11492C50.0441 8.37826 49.7898 7.8566 49.1233 7.55098L48.7029 7.33493L48.7292 7.03879L53.6758 5.5834L53.9386 5.82579L51.8868 15.5846C51.8163 15.9082 51.7638 16.1822 51.7291 16.4066C51.6933 16.6311 51.6765 16.8514 51.6765 17.0674C51.6765 17.4626 51.8521 17.6608 52.2031 17.6608C52.4659 17.6608 52.7298 17.5754 52.9925 17.4047C53.2553 17.2339 53.5885 16.9504 53.9922 16.5552L54.2287 16.7976C53.7903 17.4626 53.2332 18.0602 52.5584 18.5903C51.8825 19.1204 51.0889 19.3859 50.1776 19.3859ZM52.6352 3.68854C52.1832 3.68854 51.7921 3.53573 51.4621 3.23011C51.131 2.92449 50.966 2.51558 50.966 2.0034C50.966 1.42483 51.1636 0.949533 51.5588 0.577517C51.954 0.205501 52.4018 0.0200195 52.9011 0.0200195C53.4004 0.0200195 53.7798 0.177046 54.0868 0.4911C54.3926 0.805153 54.5461 1.20984 54.5461 1.70621C54.5461 2.26792 54.3527 2.739 53.9659 3.11945C53.5791 3.4999 53.1355 3.6896 52.6352 3.6896V3.68854Z" fill="#3A3B46"/>
<path d="M59.6872 19.3858C58.3723 19.3858 57.3012 18.9453 56.4771 18.0653C55.653 17.1853 55.241 15.9354 55.241 14.3178C55.241 13.168 55.4333 12.0709 55.8201 11.0286C56.2059 9.98634 56.7451 9.05683 57.4378 8.23797C58.1305 7.42017 58.9325 6.77836 59.8449 6.31044C60.7562 5.84358 61.7474 5.60962 62.8175 5.60962C63.8875 5.60962 64.7684 5.86571 65.356 6.37789C65.9435 6.89007 66.2379 7.56876 66.2379 8.41291C66.2379 9.11374 65.9173 9.80613 65.2771 10.489C64.637 11.1719 63.7383 11.7874 62.5799 12.3354C61.4226 12.8834 60.0625 13.3018 58.5016 13.5895C58.5184 14.8299 58.7822 15.7373 59.291 16.3127C59.7997 16.8881 60.5008 17.1758 61.3953 17.1758C62.149 17.1758 62.8427 16.9651 63.4734 16.5425C64.1051 16.1199 64.6401 15.6214 65.0785 15.046L65.3412 15.2346C64.9902 15.9354 64.5392 16.6004 63.9863 17.2296C63.4334 17.8588 62.7975 18.3752 62.0785 18.7798C61.3596 19.1845 60.5607 19.3869 59.6841 19.3869L59.6872 19.3858ZM62.6346 6.33784C62.231 6.33784 61.7968 6.51806 61.3322 6.87743C60.8676 7.2368 60.4283 7.72684 60.0173 8.34652C59.6052 8.9662 59.2626 9.67651 58.9914 10.4764C58.7191 11.2763 58.5573 12.1257 58.5047 13.0236C60.4335 12.484 61.8063 11.7748 62.622 10.8937C63.4377 10.0137 63.8455 9.01573 63.8455 7.90073C63.8455 7.36115 63.7309 6.96595 63.5039 6.71408C63.2758 6.4622 62.9867 6.33679 62.6356 6.33679L62.6346 6.33784Z" fill="#3A3B46"/>
<path d="M70.2204 19.2057L67.0103 19.3943L66.8 19.2057L68.8687 9.06005C69.0263 8.34131 68.7804 7.84704 68.1318 7.57725L67.6578 7.33486L67.7103 7.06507L72.6033 5.58228L72.8398 5.82467L72.2869 8.73651C73.1814 7.78381 74.0928 7.02502 75.023 6.45804C75.9522 5.89211 76.8204 5.60862 77.6277 5.60862C78.189 5.60862 78.6536 5.78356 79.0225 6.1345C79.3915 6.48544 79.5754 7.02924 79.5754 7.76589C79.5754 7.92714 79.566 8.08943 79.5492 8.25067C79.5313 8.41192 79.5134 8.5837 79.4966 8.76286C80.3732 7.79224 81.2635 7.02397 82.1665 6.45804C83.0694 5.89211 83.9334 5.60862 84.7575 5.60862C85.3188 5.60862 85.7792 5.78356 86.1387 6.1345C86.4982 6.48544 86.6779 7.02924 86.6779 7.76589C86.6779 8.14318 86.6422 8.53417 86.5728 8.93885C86.5024 9.34354 86.4151 9.76087 86.31 10.193L84.9414 15.9618C84.871 16.2496 84.81 16.4919 84.7575 16.6901C84.7049 16.8882 84.6787 17.0589 84.6787 17.2022C84.6787 17.5795 84.8279 17.7682 85.1264 17.7682C85.3892 17.7682 85.6835 17.6565 86.0083 17.4309C86.3331 17.2065 86.6874 16.8966 87.0742 16.5004L87.337 16.7702C87.091 17.1654 86.7672 17.5658 86.3636 17.9695C85.96 18.3742 85.4912 18.7103 84.9562 18.9801C84.4211 19.2499 83.8199 19.3848 83.1535 19.3848C82.5743 19.3848 82.1276 19.2457 81.8112 18.9675C81.4958 18.6893 81.3382 18.2983 81.3382 17.7945C81.3382 17.4172 81.3813 17.0263 81.4696 16.6216C81.5568 16.2169 81.6619 15.7995 81.7849 15.3675L82.8634 10.8116C82.9685 10.3447 83.061 9.91263 83.1398 9.51743C83.2186 9.12223 83.2586 8.79869 83.2586 8.54681C83.2586 7.91765 82.9779 7.6036 82.4166 7.6036C81.6094 7.6036 80.5919 8.22327 79.3652 9.46368C79.3473 9.49951 79.3347 9.54061 79.3253 9.58487C79.3158 9.63019 79.3127 9.67972 79.3127 9.73347L78.5758 13.2386C78.3824 14.1913 78.1985 15.144 78.0229 16.0967C77.8474 17.0494 77.6288 18.235 77.4353 19.2057L74.2515 19.3943L74.0413 19.2057L75.8387 10.4353C75.9081 10.076 75.9701 9.73874 76.0226 9.42469C76.0752 9.11063 76.1015 8.83663 76.1015 8.60267C76.1015 8.00934 75.8387 7.7132 75.3121 7.7132C74.4176 7.7132 73.3654 8.29705 72.1545 9.46579L71.3388 13.2397C71.1454 14.1924 70.9615 15.1451 70.7859 16.0978C70.6104 17.0505 70.3917 18.2361 70.2173 19.2067L70.2204 19.2057Z" fill="#3A3B46"/>
<path d="M92.2059 19.3858C90.891 19.3858 89.8199 18.9453 88.9958 18.0653C88.1717 17.1853 87.7596 15.9354 87.7596 14.3178C87.7596 13.168 87.952 12.0709 88.3388 11.0286C88.7246 9.98634 89.2638 9.05683 89.9565 8.23797C90.6492 7.42017 91.4512 6.77836 92.3636 6.31044C93.2749 5.84358 94.2661 5.60962 95.3362 5.60962C96.4062 5.60962 97.2871 5.86571 97.8746 6.37789C98.4622 6.89007 98.7565 7.56876 98.7565 8.41291C98.7565 9.11374 98.4359 9.80613 97.7958 10.489C97.1557 11.1719 96.257 11.7874 95.0986 12.3354C93.9413 12.8834 92.5812 13.3018 91.0202 13.5895C91.0371 14.8299 91.3009 15.7373 91.8096 16.3127C92.3184 16.8881 93.0195 17.1758 93.914 17.1758C94.6677 17.1758 95.3614 16.9651 95.9921 16.5425C96.6238 16.1199 97.1588 15.6214 97.5971 15.046L97.8599 15.2346C97.5088 15.9354 97.0579 16.6004 96.505 17.2296C95.9521 17.8588 95.3162 18.3752 94.5972 18.7798C93.8783 19.1845 93.0794 19.3869 92.2028 19.3869L92.2059 19.3858ZM95.1522 6.33784C94.7486 6.33784 94.3145 6.51806 93.8499 6.87743C93.3853 7.2368 92.9459 7.72684 92.5349 8.34652C92.1229 8.9662 91.7802 9.67651 91.509 10.4764C91.2368 11.2763 91.0749 12.1257 91.0223 13.0236C92.9512 12.484 94.3239 11.7748 95.1396 10.8937C95.9553 10.0137 96.3631 9.01573 96.3631 7.90073C96.3631 7.36115 96.2485 6.96595 96.0215 6.71408C95.7934 6.4622 95.5043 6.33679 95.1533 6.33679L95.1522 6.33784Z" fill="#3A3B46"/>
<path d="M64.3226 4.48L60.4376 2.30692C59.931 1.99603 59.6777 1.54497 59.6777 1.09286C59.6777 0.500584 60.1559 0.0200195 60.8318 0.0200195C61.2544 0.0200195 61.6202 0.217093 61.9019 0.640749L64.5759 4.47894H64.3226V4.48Z" fill="#3A3B46"/>
<path d="M19.1661 48.4832H18.3599V57.0206H19.1661V48.4832Z" fill="#3A3B46"/>
<path d="M21.4449 48.9553H22.3773L21.364 51.4477H20.7775L21.4449 48.9553Z" fill="#3A3B46"/>
<path d="M24.5301 57.0195H23.726V50.7206H24.5301V57.0195ZM23.7123 49.4011C23.5967 49.2852 23.5399 49.144 23.5399 48.9743C23.5399 48.8046 23.5967 48.6645 23.7123 48.5527C23.8279 48.4421 23.9656 48.3862 24.1264 48.3862C24.2873 48.3862 24.426 48.4421 24.5416 48.5527C24.6573 48.6645 24.714 48.8057 24.714 48.9743C24.714 49.1429 24.6573 49.2852 24.5416 49.4011C24.426 49.517 24.2883 49.5739 24.1264 49.5739C23.9646 49.5739 23.8279 49.517 23.7123 49.4011Z" fill="#3A3B46"/>
<path d="M35.7161 51.3034C36.1796 51.7681 36.413 52.4447 36.413 53.3279V57.0196H35.6194V53.4195C35.6194 52.7356 35.4544 52.2129 35.1243 51.8503C34.7942 51.4889 34.3454 51.3086 33.7778 51.3086C33.2102 51.3086 32.7151 51.5047 32.363 51.8978C32.0098 52.2898 31.8343 52.8599 31.8343 53.605V57.0196H31.0407V53.4195C31.0407 52.7356 30.8746 52.2129 30.5456 51.8503C30.2155 51.4889 29.7636 51.3086 29.1875 51.3086C28.6115 51.3086 28.1248 51.5047 27.7727 51.8978C27.4195 52.2898 27.243 52.8599 27.243 53.605V57.0196H26.4388V50.7206H27.243V51.8061C27.4427 51.413 27.7265 51.1158 28.0944 50.9124C28.4633 50.7079 28.8733 50.6057 29.3252 50.6057C29.8708 50.6057 30.348 50.7374 30.759 50.9988C31.1689 51.2602 31.4674 51.6448 31.6503 52.1528C31.8185 51.6522 32.1086 51.2707 32.5186 51.0051C32.9285 50.7396 33.3952 50.6068 33.9176 50.6068C34.6534 50.6068 35.2546 50.8397 35.7182 51.3055" fill="#3A3B46"/>
<path d="M47.5593 51.3034C48.0229 51.7681 48.2562 52.4447 48.2562 53.3279V57.0196H47.4626V53.4195C47.4626 52.7356 47.2976 52.2129 46.9676 51.8503C46.6386 51.4889 46.1897 51.3086 45.6221 51.3086C45.0545 51.3086 44.5584 51.5047 44.2063 51.8978C43.8541 52.2898 43.6775 52.8599 43.6775 53.605V57.0196H42.8839V53.4195C42.8839 52.7356 42.7189 52.2129 42.3889 51.8503C42.0599 51.4889 41.6068 51.3086 41.0308 51.3086C40.4548 51.3086 39.9681 51.5047 39.616 51.8978C39.2628 52.2898 39.0862 52.8599 39.0862 53.605V57.0196H38.2821V50.7206H39.0862V51.8061C39.2859 51.413 39.5697 51.1158 39.9387 50.9124C40.3076 50.7079 40.7176 50.6057 41.1695 50.6057C41.7151 50.6057 42.1912 50.7374 42.6022 50.9988C43.0122 51.2602 43.3107 51.6448 43.4936 52.1528C43.6618 51.6522 43.9529 51.2707 44.3629 51.0051C44.7728 50.7396 45.2385 50.6068 45.7598 50.6068C46.4956 50.6068 47.0969 50.8397 47.5604 51.3055" fill="#3A3B46"/>
<path d="M54.0362 56.1257C54.3894 55.9381 54.6753 55.6525 54.8939 55.2721C55.1126 54.8906 55.2219 54.4248 55.2219 53.8715C55.2219 53.3182 55.1147 52.8503 54.9002 52.4688C54.6847 52.0873 54.4009 51.8028 54.0488 51.6141C53.6956 51.4265 53.312 51.3317 52.8978 51.3317C52.4837 51.3317 52.099 51.4265 51.7468 51.6141C51.3937 51.8028 51.112 52.0873 50.9017 52.4688C50.6905 52.8503 50.5843 53.3161 50.5843 53.8715C50.5843 54.4269 50.6905 54.8916 50.9017 55.2721C51.112 55.6525 51.3916 55.9381 51.7416 56.1257C52.0906 56.3144 52.4721 56.4092 52.8863 56.4092C53.3004 56.4092 53.6841 56.3144 54.0362 56.1257ZM51.2928 56.7138C50.8208 56.4482 50.4487 56.072 50.1765 55.583C49.9042 55.095 49.7676 54.5238 49.7676 53.8704C49.7676 53.217 49.9063 52.6458 50.1828 52.1558C50.4582 51.6689 50.8334 51.2906 51.3106 51.026C51.7857 50.7605 52.3187 50.6277 52.9104 50.6277C53.5022 50.6277 54.0362 50.7605 54.5145 51.026C54.9948 51.2906 55.3701 51.6679 55.6423 52.1558C55.9156 52.6458 56.0512 53.217 56.0512 53.8704C56.0512 54.5238 55.9125 55.0856 55.636 55.5767C55.3606 56.0699 54.9801 56.4472 54.4966 56.7127C54.0141 56.9783 53.477 57.11 52.8863 57.11C52.2955 57.11 51.7647 56.9783 51.2928 56.7127" fill="#3A3B46"/>
<path d="M62.7785 52.5027C62.5745 52.1222 62.297 51.8324 61.9449 51.6322C61.5917 51.432 61.1923 51.3329 60.7487 51.3329C60.3052 51.3329 59.9257 51.4362 59.5683 51.6438C59.2109 51.8514 58.9303 52.1475 58.7222 52.5322C58.5151 52.9169 58.4121 53.3637 58.4121 53.8706C58.4121 54.3775 58.5151 54.8244 58.7222 55.209C58.9303 55.5937 59.212 55.8898 59.5683 56.0974C59.9257 56.3061 60.3178 56.4094 60.7487 56.4094C61.1797 56.4094 61.5917 56.3072 61.9449 56.1027C62.297 55.9004 62.5745 55.6042 62.7785 55.2143C62.9824 54.8265 63.0843 54.3744 63.0843 53.859C63.0843 53.3437 62.9824 52.8842 62.7785 52.5037M59.3728 51.0431C59.8069 50.767 60.3178 50.6279 60.9085 50.6279C61.4992 50.6279 61.9975 50.7606 62.4505 51.0252C62.9035 51.2907 63.2588 51.6691 63.5153 52.156C63.7718 52.646 63.9011 53.2119 63.9011 53.858C63.9011 54.504 63.7718 55.0741 63.5153 55.5652C63.2588 56.0574 62.9014 56.4378 62.4453 56.7076C61.988 56.9774 61.4761 57.1113 60.9085 57.1113C60.3094 57.1113 59.7943 56.9753 59.3612 56.7024C58.9271 56.4294 58.6118 56.0732 58.411 55.6348V57.0196H57.6174V48.4822H58.411V52.1159C58.6192 51.6775 58.9387 51.3213 59.3728 51.0431Z" fill="#3A3B46"/>
<path d="M66.2567 57.0196H65.4505V50.7206H66.2567V57.0196ZM65.4389 49.4033C65.3233 49.2874 65.2665 49.1462 65.2665 48.9765C65.2665 48.8068 65.3233 48.6667 65.4389 48.5549C65.5546 48.4443 65.6922 48.3884 65.8531 48.3884C66.0139 48.3884 66.1516 48.4443 66.2672 48.5549C66.3839 48.6667 66.4407 48.8079 66.4407 48.9765C66.4407 49.1451 66.3839 49.2874 66.2672 49.4033C66.1516 49.5192 66.0149 49.5761 65.8531 49.5761C65.6912 49.5761 65.5546 49.5192 65.4389 49.4033Z" fill="#3A3B46"/>
<path d="M68.9748 48.4832H68.1707V57.0206H68.9748V48.4832Z" fill="#3A3B46"/>
<path d="M71.6898 57.0196H70.8836V50.7206H71.6898V57.0196ZM70.872 49.4001C70.7564 49.2842 70.6996 49.143 70.6996 48.9733C70.6996 48.8036 70.7564 48.6635 70.872 48.5518C70.9877 48.4411 71.1254 48.3853 71.2862 48.3853C71.447 48.3853 71.5857 48.4411 71.7003 48.5518C71.817 48.6635 71.8738 48.8047 71.8738 48.9733C71.8738 49.1419 71.817 49.2842 71.7003 49.4001C71.5868 49.5161 71.448 49.573 71.2862 49.573C71.1243 49.573 70.9877 49.5161 70.872 49.4001Z" fill="#3A3B46"/>
<path d="M78.1826 52.3235C77.9871 51.9937 77.7212 51.7428 77.3827 51.5742C77.0453 51.4056 76.6774 51.3202 76.2791 51.3202C75.6789 51.3202 75.1701 51.5131 74.7476 51.8978C74.325 52.2824 74.0917 52.8241 74.0454 53.5249H78.4643C78.4717 53.0549 78.3782 52.6555 78.1816 52.3246M79.259 54.1815H74.0454C74.0685 54.6579 74.1842 55.0668 74.3912 55.404C74.5983 55.7423 74.8705 55.9984 75.209 56.1712C75.5464 56.3451 75.9143 56.4315 76.3137 56.4315C76.8362 56.4315 77.2745 56.304 77.6308 56.0511C77.9882 55.7971 78.2236 55.4546 78.3393 55.0246H79.1907C79.0372 55.639 78.7093 56.1417 78.2068 56.5295C77.7044 56.9184 77.0737 57.1123 76.3137 57.1123C75.723 57.1123 75.1932 56.9795 74.7255 56.714C74.2577 56.4494 73.8909 56.0732 73.6271 55.5842C73.3622 55.0963 73.2297 54.523 73.2297 53.8706C73.2297 53.2183 73.3611 52.6429 73.6218 52.1517C73.8825 51.6596 74.2472 51.2823 74.715 51.0209C75.1838 50.7596 75.7157 50.6289 76.3148 50.6289C76.9139 50.6289 77.4363 50.7596 77.8852 51.0209C78.334 51.2823 78.6788 51.6343 78.9216 52.0759C79.1633 52.5185 79.2842 53.0096 79.2842 53.5481C79.2842 53.8242 79.2758 54.0361 79.2611 54.1826" fill="#3A3B46"/>
<path d="M82.4786 50.9282C82.8423 50.7122 83.2901 50.6057 83.8188 50.6057V51.4478H83.6002C83.0168 51.4478 82.5491 51.6058 82.1959 51.9209C81.8438 52.2371 81.6672 52.764 81.6672 53.5017V57.0206H80.861V50.7216H81.6672V51.8408C81.8438 51.4478 82.115 51.1453 82.4786 50.9293" fill="#3A3B46"/>
<path d="M93.1454 52.5059C92.9436 52.1254 92.664 51.8356 92.3119 51.6354C91.9587 51.4362 91.5593 51.3361 91.1157 51.3361C90.6721 51.3361 90.2927 51.4393 89.9353 51.647C89.58 51.8546 89.2972 52.1507 89.0902 52.5354C88.8821 52.92 88.7801 53.3669 88.7801 53.8738C88.7801 54.3807 88.8821 54.8275 89.0902 55.2122C89.2972 55.5969 89.58 55.893 89.9353 56.1017C90.2927 56.3093 90.6847 56.4126 91.1157 56.4126C91.5467 56.4126 91.9587 56.3103 92.3119 56.1059C92.664 55.9035 92.9436 55.6074 93.1454 55.2175C93.3493 54.8296 93.4513 54.3786 93.4513 53.8622C93.4513 53.3458 93.3493 52.8874 93.1454 52.5069M89.7282 51.0526C90.1623 50.7712 90.6774 50.6321 91.2765 50.6321C91.8431 50.6321 92.355 50.7649 92.8122 51.0294C93.2684 51.295 93.6247 51.6733 93.8823 52.1602C94.1387 52.6502 94.268 53.2162 94.268 53.8622C94.268 54.5082 94.1387 55.0784 93.8823 55.5695C93.6258 56.0616 93.2684 56.4421 92.8122 56.7119C92.355 56.9816 91.8431 57.1155 91.2765 57.1155C90.71 57.1155 90.1707 56.9753 89.7335 56.695C89.2962 56.4157 88.9777 56.0616 88.779 55.6401V60.001H87.9833V50.7248H88.779V52.1096C88.9777 51.6859 89.2941 51.334 89.7282 51.0536" fill="#3A3B46"/>
<path d="M100.67 52.5354C100.462 52.1507 100.18 51.8546 99.8241 51.647C99.4668 51.4393 99.0747 51.335 98.6437 51.335C98.2128 51.335 97.8007 51.4351 97.4476 51.6354C97.0944 51.8356 96.8158 52.1265 96.613 52.5059C96.409 52.8874 96.3081 53.3395 96.3081 53.8611C96.3081 54.3828 96.409 54.8286 96.613 55.2164C96.8169 55.6053 97.0944 55.9004 97.4476 56.1048C97.8007 56.3093 98.2002 56.4105 98.6437 56.4105C99.0873 56.4105 99.4668 56.3082 99.8241 56.0996C100.182 55.8919 100.462 55.5958 100.67 55.2111C100.877 54.8265 100.98 54.3796 100.98 53.8727C100.98 53.3658 100.877 52.919 100.67 52.5343M95.8761 52.1602C96.1326 51.6733 96.49 51.295 96.9462 51.0294C97.4034 50.7649 97.9195 50.6321 98.4945 50.6321C99.0694 50.6321 99.6087 50.7712 100.042 51.0473C100.476 51.3245 100.788 51.6775 100.98 52.1096V50.7248H101.787V57.0238H100.98V55.6285C100.781 56.0585 100.464 56.4136 100.03 56.695C99.5961 56.9764 99.081 57.1155 98.4829 57.1155C97.8848 57.1155 97.4024 56.9816 96.9462 56.7119C96.49 56.4421 96.1336 56.0616 95.8761 55.5695C95.6196 55.0773 95.4904 54.5072 95.4904 53.8622C95.4904 53.2172 95.6196 52.6492 95.8761 52.1602Z" fill="#3A3B46"/>
<path d="M105.313 50.9314C105.677 50.7153 106.125 50.6089 106.653 50.6089V51.4509H106.435C105.851 51.4509 105.384 51.609 105.03 51.9241C104.678 52.2403 104.502 52.7672 104.502 53.5049V57.0238H103.696V50.7248H104.502V51.844C104.678 51.4509 104.948 51.1485 105.313 50.9324" fill="#3A3B46"/>
<path d="M116.548 52.8537L115.9 52.176C116.072 52.02 116.299 51.9231 116.549 51.9231C116.799 51.9231 117.026 52.019 117.196 52.176L116.548 52.8537ZM116.548 51.7302C115.909 51.7302 115.391 52.2487 115.391 52.8874C115.391 53.526 115.909 54.0445 116.548 54.0445C117.187 54.0445 117.704 53.5271 117.704 52.8874C117.704 52.2477 117.186 51.7302 116.548 51.7302Z" fill="#3A3B46"/>
<path d="M116.549 55.4714C115.113 55.4714 113.949 54.3142 113.949 52.8873C113.949 52.6534 113.98 52.4278 114.039 52.2128C114.267 51.2317 115.069 49.7858 115.928 48.5791H117.691C117.394 48.9933 116.991 49.6477 116.611 50.3043C118.016 50.338 119.147 51.4814 119.147 52.8884C119.147 54.2953 117.984 55.4725 116.549 55.4725M120.732 48.4821L118.455 50.8628C118.03 50.4666 117.502 50.2147 116.932 50.1367C117.287 49.5349 117.614 49.0175 117.847 48.6919L118.067 48.3862H115.829L115.771 48.4674C115.323 49.0965 114.827 49.8869 114.442 50.6542L112.363 48.4821L110.999 57.0069H113.774L114.09 54.4038L116.549 57.0069L119.007 54.4038L119.324 57.0069H122.099L120.734 48.4821H120.732Z" fill="#3A3B46"/>
</g>
<defs>
<clipPath id="clip0_184_554">
<rect width="140.4" height="60" fill="white"/>
</clipPath>
</defs>
</svg>
